<mxfile host="app.diagrams.net" modified="2020-11-02T19:46:36.129Z" agent="5.0 (Windows NT 10.0; Win64; x64) AppleWebKit/537.36 (KHTML, like Gecko) Chrome/86.0.4240.111 Safari/537.36" etag="voz859ILs57e4uTLVD5x" version="13.8.8" type="github">
  <diagram id="mFkcMuC9rqG0T3RHlBue" name="Page-1">
    <mxGraphModel dx="2842" dy="913" grid="1" gridSize="10" guides="1" tooltips="1" connect="1" arrows="1" fold="1" page="1" pageScale="1" pageWidth="1169" pageHeight="827" math="0" shadow="0">
      <root>
        <mxCell id="0" />
        <mxCell id="1" parent="0" />
        <mxCell id="_XHJdUySWQMbSV_TM1zQ-9" value="Admin" style="rounded=1;arcSize=10;whiteSpace=wrap;html=1;align=center;" parent="1" vertex="1">
          <mxGeometry y="714" width="100" height="40" as="geometry" />
        </mxCell>
        <mxCell id="_XHJdUySWQMbSV_TM1zQ-10" value="Associated" style="rounded=1;arcSize=10;whiteSpace=wrap;html=1;align=center;" parent="1" vertex="1">
          <mxGeometry x="255" y="724" width="100" height="40" as="geometry" />
        </mxCell>
        <mxCell id="_XHJdUySWQMbSV_TM1zQ-61" value="" style="group" parent="1" vertex="1" connectable="0">
          <mxGeometry x="295" y="691" as="geometry" />
        </mxCell>
        <mxCell id="_XHJdUySWQMbSV_TM1zQ-14" value="" style="endArrow=none;html=1;" parent="_XHJdUySWQMbSV_TM1zQ-61" edge="1">
          <mxGeometry width="50" height="50" relative="1" as="geometry">
            <mxPoint x="-20" as="sourcePoint" />
            <mxPoint x="15" y="-10" as="targetPoint" />
            <Array as="points">
              <mxPoint />
            </Array>
          </mxGeometry>
        </mxCell>
        <mxCell id="_XHJdUySWQMbSV_TM1zQ-62" value="" style="group;rotation=40;" parent="1" vertex="1" connectable="0">
          <mxGeometry x="134" y="692" as="geometry" />
        </mxCell>
        <mxCell id="_XHJdUySWQMbSV_TM1zQ-13" value="" style="endArrow=none;html=1;" parent="_XHJdUySWQMbSV_TM1zQ-62" edge="1">
          <mxGeometry width="50" height="50" relative="1" as="geometry">
            <mxPoint x="-1" y="-14" as="sourcePoint" />
            <mxPoint x="14" y="13" as="targetPoint" />
            <Array as="points">
              <mxPoint />
            </Array>
          </mxGeometry>
        </mxCell>
        <mxCell id="_XHJdUySWQMbSV_TM1zQ-92" value="Belongs" style="shape=rhombus;perimeter=rhombusPerimeter;whiteSpace=wrap;html=1;align=center;" parent="1" vertex="1">
          <mxGeometry x="245" y="950" width="120" height="60" as="geometry" />
        </mxCell>
        <mxCell id="_XHJdUySWQMbSV_TM1zQ-96" value="" style="endArrow=none;html=1;rounded=0;entryX=0.5;entryY=1;entryDx=0;entryDy=0;exitX=0.5;exitY=0;exitDx=0;exitDy=0;shape=link;" parent="1" source="_XHJdUySWQMbSV_TM1zQ-92" target="_XHJdUySWQMbSV_TM1zQ-10" edge="1">
          <mxGeometry relative="1" as="geometry">
            <mxPoint x="610" y="470" as="sourcePoint" />
            <mxPoint x="770" y="470" as="targetPoint" />
          </mxGeometry>
        </mxCell>
        <mxCell id="_XHJdUySWQMbSV_TM1zQ-128" value="N" style="edgeLabel;html=1;align=center;verticalAlign=middle;resizable=0;points=[];" parent="_XHJdUySWQMbSV_TM1zQ-96" vertex="1" connectable="0">
          <mxGeometry x="0.2512" y="1" relative="1" as="geometry">
            <mxPoint x="-9" y="-54" as="offset" />
          </mxGeometry>
        </mxCell>
        <mxCell id="_XHJdUySWQMbSV_TM1zQ-105" style="edgeStyle=none;rounded=0;orthogonalLoop=1;jettySize=auto;html=1;exitX=0;exitY=1;exitDx=0;exitDy=0;entryX=0.5;entryY=0;entryDx=0;entryDy=0;endArrow=none;endFill=0;" parent="1" source="_XHJdUySWQMbSV_TM1zQ-101" target="_XHJdUySWQMbSV_TM1zQ-102" edge="1">
          <mxGeometry relative="1" as="geometry" />
        </mxCell>
        <mxCell id="_XHJdUySWQMbSV_TM1zQ-106" style="edgeStyle=none;rounded=0;orthogonalLoop=1;jettySize=auto;html=1;exitX=0;exitY=0;exitDx=0;exitDy=0;entryX=1;entryY=1;entryDx=0;entryDy=0;endArrow=none;endFill=0;" parent="1" source="_XHJdUySWQMbSV_TM1zQ-101" target="_XHJdUySWQMbSV_TM1zQ-103" edge="1">
          <mxGeometry relative="1" as="geometry" />
        </mxCell>
        <mxCell id="_XHJdUySWQMbSV_TM1zQ-107" style="edgeStyle=none;rounded=0;orthogonalLoop=1;jettySize=auto;html=1;exitX=0;exitY=0.5;exitDx=0;exitDy=0;entryX=1;entryY=0.5;entryDx=0;entryDy=0;endArrow=none;endFill=0;" parent="1" source="_XHJdUySWQMbSV_TM1zQ-101" target="_XHJdUySWQMbSV_TM1zQ-104" edge="1">
          <mxGeometry relative="1" as="geometry" />
        </mxCell>
        <mxCell id="_XHJdUySWQMbSV_TM1zQ-130" style="edgeStyle=none;rounded=0;orthogonalLoop=1;jettySize=auto;html=1;endArrow=none;endFill=0;entryX=0;entryY=0.5;entryDx=0;entryDy=0;shape=link;" parent="1" source="_XHJdUySWQMbSV_TM1zQ-101" target="_XHJdUySWQMbSV_TM1zQ-3" edge="1">
          <mxGeometry relative="1" as="geometry">
            <mxPoint x="1400" y="744" as="targetPoint" />
          </mxGeometry>
        </mxCell>
        <mxCell id="_XHJdUySWQMbSV_TM1zQ-101" value="d" style="ellipse;whiteSpace=wrap;html=1;aspect=fixed;" parent="1" vertex="1">
          <mxGeometry x="1350" y="612" width="50" height="50" as="geometry" />
        </mxCell>
        <mxCell id="U5pFRukm2JmZBXN3nTK0-14" style="edgeStyle=orthogonalEdgeStyle;rounded=0;orthogonalLoop=1;jettySize=auto;html=1;entryX=0.5;entryY=1;entryDx=0;entryDy=0;endArrow=none;endFill=0;exitX=0;exitY=0.5;exitDx=0;exitDy=0;" parent="1" source="_XHJdUySWQMbSV_TM1zQ-102" target="U5pFRukm2JmZBXN3nTK0-13" edge="1">
          <mxGeometry relative="1" as="geometry" />
        </mxCell>
        <mxCell id="U5pFRukm2JmZBXN3nTK0-17" value="1" style="edgeLabel;html=1;align=center;verticalAlign=middle;resizable=0;points=[];" parent="U5pFRukm2JmZBXN3nTK0-14" vertex="1" connectable="0">
          <mxGeometry x="-0.494" relative="1" as="geometry">
            <mxPoint x="44.12" y="-11.05" as="offset" />
          </mxGeometry>
        </mxCell>
        <mxCell id="_XHJdUySWQMbSV_TM1zQ-102" value="Adoption Animal" style="rounded=1;arcSize=10;whiteSpace=wrap;html=1;align=center;" parent="1" vertex="1">
          <mxGeometry x="1000" y="934" width="100" height="40" as="geometry" />
        </mxCell>
        <mxCell id="_XHJdUySWQMbSV_TM1zQ-103" value="Missing Animal" style="rounded=1;arcSize=10;whiteSpace=wrap;html=1;align=center;" parent="1" vertex="1">
          <mxGeometry x="1000" y="364" width="100" height="40" as="geometry" />
        </mxCell>
        <mxCell id="MiMDxGJ4IfNCkflv9vhh-8" style="edgeStyle=none;rounded=0;orthogonalLoop=1;jettySize=auto;html=1;exitX=0.5;exitY=0;exitDx=0;exitDy=0;endArrow=none;endFill=0;" parent="1" source="_XHJdUySWQMbSV_TM1zQ-104" target="MiMDxGJ4IfNCkflv9vhh-9" edge="1">
          <mxGeometry relative="1" as="geometry">
            <mxPoint x="1050" y="486" as="targetPoint" />
          </mxGeometry>
        </mxCell>
        <mxCell id="_XHJdUySWQMbSV_TM1zQ-104" value="Found Animal" style="rounded=1;arcSize=10;whiteSpace=wrap;html=1;align=center;" parent="1" vertex="1">
          <mxGeometry x="1000" y="543" width="100" height="40" as="geometry" />
        </mxCell>
        <mxCell id="_XHJdUySWQMbSV_TM1zQ-108" value="" style="group;rotation=110;" parent="1" vertex="1" connectable="0">
          <mxGeometry x="1280" y="553" as="geometry" />
        </mxCell>
        <mxCell id="_XHJdUySWQMbSV_TM1zQ-109" style="rounded=0;orthogonalLoop=1;jettySize=auto;html=1;exitX=0;exitY=1;exitDx=0;exitDy=0;entryX=0.5;entryY=0;entryDx=0;entryDy=0;endArrow=none;endFill=0;" parent="_XHJdUySWQMbSV_TM1zQ-108" edge="1">
          <mxGeometry relative="1" as="geometry" />
        </mxCell>
        <mxCell id="_XHJdUySWQMbSV_TM1zQ-110" value="" style="endArrow=none;html=1;" parent="_XHJdUySWQMbSV_TM1zQ-108" edge="1">
          <mxGeometry width="50" height="50" relative="1" as="geometry">
            <mxPoint x="13" y="-6" as="sourcePoint" />
            <mxPoint x="-6" y="18" as="targetPoint" />
            <Array as="points">
              <mxPoint />
            </Array>
          </mxGeometry>
        </mxCell>
        <mxCell id="_XHJdUySWQMbSV_TM1zQ-111" value="" style="group;rotation=60;" parent="1" vertex="1" connectable="0">
          <mxGeometry x="1290" y="717" as="geometry" />
        </mxCell>
        <mxCell id="_XHJdUySWQMbSV_TM1zQ-112" style="edgeStyle=none;rounded=0;orthogonalLoop=1;jettySize=auto;html=1;exitX=1;exitY=1;exitDx=0;exitDy=0;entryX=0.5;entryY=0;entryDx=0;entryDy=0;endArrow=none;endFill=0;" parent="_XHJdUySWQMbSV_TM1zQ-111" edge="1">
          <mxGeometry relative="1" as="geometry" />
        </mxCell>
        <mxCell id="_XHJdUySWQMbSV_TM1zQ-113" value="" style="endArrow=none;html=1;" parent="_XHJdUySWQMbSV_TM1zQ-111" edge="1">
          <mxGeometry width="50" height="50" relative="1" as="geometry">
            <mxPoint x="-10" y="-17" as="sourcePoint" />
            <mxPoint x="16" y="7" as="targetPoint" />
            <Array as="points">
              <mxPoint />
            </Array>
          </mxGeometry>
        </mxCell>
        <mxCell id="_XHJdUySWQMbSV_TM1zQ-115" style="rounded=0;orthogonalLoop=1;jettySize=auto;html=1;exitX=0;exitY=1;exitDx=0;exitDy=0;entryX=0.5;entryY=0;entryDx=0;entryDy=0;endArrow=none;endFill=0;" parent="1" edge="1">
          <mxGeometry relative="1" as="geometry" />
        </mxCell>
        <mxCell id="_XHJdUySWQMbSV_TM1zQ-127" style="edgeStyle=none;rounded=0;orthogonalLoop=1;jettySize=auto;html=1;entryX=0.5;entryY=1;entryDx=0;entryDy=0;endArrow=none;endFill=0;" parent="1" source="_XHJdUySWQMbSV_TM1zQ-1" target="_XHJdUySWQMbSV_TM1zQ-92" edge="1">
          <mxGeometry relative="1" as="geometry" />
        </mxCell>
        <mxCell id="_XHJdUySWQMbSV_TM1zQ-129" value="1" style="edgeLabel;html=1;align=center;verticalAlign=middle;resizable=0;points=[];" parent="_XHJdUySWQMbSV_TM1zQ-127" vertex="1" connectable="0">
          <mxGeometry x="-0.6265" y="-1" relative="1" as="geometry">
            <mxPoint x="-10.29" y="16.990000000000002" as="offset" />
          </mxGeometry>
        </mxCell>
        <mxCell id="_XHJdUySWQMbSV_TM1zQ-117" value="createdAt" style="ellipse;whiteSpace=wrap;html=1;align=center;" parent="1" vertex="1">
          <mxGeometry x="1370" y="691" width="100" height="40" as="geometry" />
        </mxCell>
        <mxCell id="MiMDxGJ4IfNCkflv9vhh-5" style="edgeStyle=none;rounded=0;orthogonalLoop=1;jettySize=auto;html=1;exitX=0.088;exitY=1.015;exitDx=0;exitDy=0;endArrow=none;endFill=0;exitPerimeter=0;" parent="1" source="_XHJdUySWQMbSV_TM1zQ-3" target="MiMDxGJ4IfNCkflv9vhh-6" edge="1">
          <mxGeometry relative="1" as="geometry">
            <mxPoint x="1570" y="740" as="targetPoint" />
          </mxGeometry>
        </mxCell>
        <mxCell id="_XHJdUySWQMbSV_TM1zQ-3" value="Animal" style="rounded=1;arcSize=10;whiteSpace=wrap;html=1;align=center;" parent="1" vertex="1">
          <mxGeometry x="1510" y="617" width="100" height="40" as="geometry" />
        </mxCell>
        <mxCell id="_XHJdUySWQMbSV_TM1zQ-118" style="edgeStyle=none;rounded=0;orthogonalLoop=1;jettySize=auto;html=1;entryX=0;entryY=1;entryDx=0;entryDy=0;endArrow=none;endFill=0;" parent="1" source="_XHJdUySWQMbSV_TM1zQ-117" target="_XHJdUySWQMbSV_TM1zQ-3" edge="1">
          <mxGeometry x="1380" y="454" as="geometry" />
        </mxCell>
        <mxCell id="_XHJdUySWQMbSV_TM1zQ-42" style="edgeStyle=none;rounded=0;orthogonalLoop=1;jettySize=auto;html=1;exitX=1;exitY=1;exitDx=0;exitDy=0;endArrow=none;endFill=0;entryX=0;entryY=0;entryDx=0;entryDy=0;" parent="1" source="_XHJdUySWQMbSV_TM1zQ-41" target="_XHJdUySWQMbSV_TM1zQ-3" edge="1">
          <mxGeometry x="1380" y="454" as="geometry">
            <mxPoint x="1560" y="617" as="targetPoint" />
          </mxGeometry>
        </mxCell>
        <mxCell id="_XHJdUySWQMbSV_TM1zQ-41" value="AnimalId" style="ellipse;whiteSpace=wrap;html=1;align=center;fontStyle=4;" parent="1" vertex="1">
          <mxGeometry x="1400" y="553" width="100" height="40" as="geometry" />
        </mxCell>
        <mxCell id="_XHJdUySWQMbSV_TM1zQ-48" value="furLength" style="ellipse;whiteSpace=wrap;html=1;align=center;" parent="1" vertex="1">
          <mxGeometry x="1880" y="414" width="100" height="40" as="geometry" />
        </mxCell>
        <mxCell id="_XHJdUySWQMbSV_TM1zQ-50" style="edgeStyle=none;rounded=0;orthogonalLoop=1;jettySize=auto;html=1;endArrow=none;endFill=0;entryX=0.75;entryY=0;entryDx=0;entryDy=0;" parent="1" source="_XHJdUySWQMbSV_TM1zQ-48" target="MiMDxGJ4IfNCkflv9vhh-61" edge="1">
          <mxGeometry x="1312" y="453" as="geometry">
            <mxPoint x="1652" y="449" as="targetPoint" />
          </mxGeometry>
        </mxCell>
        <mxCell id="_XHJdUySWQMbSV_TM1zQ-146" style="edgeStyle=orthogonalEdgeStyle;rounded=0;orthogonalLoop=1;jettySize=auto;html=1;exitX=1;exitY=0.5;exitDx=0;exitDy=0;endArrow=none;endFill=0;shape=link;entryX=0.25;entryY=1;entryDx=0;entryDy=0;" parent="1" source="_XHJdUySWQMbSV_TM1zQ-133" target="_XHJdUySWQMbSV_TM1zQ-102" edge="1">
          <mxGeometry relative="1" as="geometry">
            <mxPoint x="1010" y="1000" as="targetPoint" />
            <Array as="points">
              <mxPoint x="1025" y="1060" />
            </Array>
          </mxGeometry>
        </mxCell>
        <mxCell id="_XHJdUySWQMbSV_TM1zQ-147" value="N" style="edgeLabel;html=1;align=center;verticalAlign=middle;resizable=0;points=[];" parent="_XHJdUySWQMbSV_TM1zQ-146" vertex="1" connectable="0">
          <mxGeometry x="0.297" y="-1" relative="1" as="geometry">
            <mxPoint x="36.14" y="-79" as="offset" />
          </mxGeometry>
        </mxCell>
        <mxCell id="_XHJdUySWQMbSV_TM1zQ-133" value="Publish" style="shape=rhombus;perimeter=rhombusPerimeter;whiteSpace=wrap;html=1;align=center;" parent="1" vertex="1">
          <mxGeometry x="610" y="1030" width="120" height="60" as="geometry" />
        </mxCell>
        <mxCell id="_XHJdUySWQMbSV_TM1zQ-136" style="edgeStyle=orthogonalEdgeStyle;rounded=0;orthogonalLoop=1;jettySize=auto;html=1;entryX=0;entryY=0.5;entryDx=0;entryDy=0;endArrow=none;endFill=0;exitX=1;exitY=0.5;exitDx=0;exitDy=0;" parent="1" source="_XHJdUySWQMbSV_TM1zQ-2" target="_XHJdUySWQMbSV_TM1zQ-135" edge="1">
          <mxGeometry relative="1" as="geometry">
            <mxPoint x="320" y="479" as="sourcePoint" />
            <Array as="points">
              <mxPoint x="320" y="480" />
              <mxPoint x="600" y="480" />
              <mxPoint x="600" y="384" />
            </Array>
          </mxGeometry>
        </mxCell>
        <mxCell id="_XHJdUySWQMbSV_TM1zQ-141" value="1" style="edgeLabel;html=1;align=center;verticalAlign=middle;resizable=0;points=[];" parent="_XHJdUySWQMbSV_TM1zQ-136" vertex="1" connectable="0">
          <mxGeometry x="-0.2384" y="2" relative="1" as="geometry">
            <mxPoint x="-156" y="10" as="offset" />
          </mxGeometry>
        </mxCell>
        <mxCell id="U5pFRukm2JmZBXN3nTK0-11" style="edgeStyle=none;rounded=0;orthogonalLoop=1;jettySize=auto;html=1;entryX=0;entryY=0;entryDx=0;entryDy=0;endArrow=none;endFill=0;" parent="1" source="_XHJdUySWQMbSV_TM1zQ-2" target="U5pFRukm2JmZBXN3nTK0-10" edge="1">
          <mxGeometry relative="1" as="geometry" />
        </mxCell>
        <mxCell id="U5pFRukm2JmZBXN3nTK0-18" value="1" style="edgeLabel;html=1;align=center;verticalAlign=middle;resizable=0;points=[];" parent="U5pFRukm2JmZBXN3nTK0-11" vertex="1" connectable="0">
          <mxGeometry x="-0.2365" relative="1" as="geometry">
            <mxPoint x="-55.81" y="-37.7" as="offset" />
          </mxGeometry>
        </mxCell>
        <mxCell id="_XHJdUySWQMbSV_TM1zQ-2" value="User" style="rounded=1;arcSize=10;whiteSpace=wrap;html=1;align=center;" parent="1" vertex="1">
          <mxGeometry x="220" y="474" width="100" height="40" as="geometry" />
        </mxCell>
        <mxCell id="_XHJdUySWQMbSV_TM1zQ-5" style="rounded=0;orthogonalLoop=1;jettySize=auto;html=1;entryX=0.25;entryY=0;entryDx=0;entryDy=0;endArrow=none;endFill=0;" parent="1" source="_XHJdUySWQMbSV_TM1zQ-4" target="_XHJdUySWQMbSV_TM1zQ-2" edge="1">
          <mxGeometry x="40" y="200" as="geometry" />
        </mxCell>
        <mxCell id="_XHJdUySWQMbSV_TM1zQ-4" value="userId" style="ellipse;whiteSpace=wrap;html=1;align=center;fontStyle=4;" parent="1" vertex="1">
          <mxGeometry x="110" y="387" width="100" height="40" as="geometry" />
        </mxCell>
        <mxCell id="_XHJdUySWQMbSV_TM1zQ-8" style="rounded=0;orthogonalLoop=1;jettySize=auto;html=1;endArrow=none;endFill=0;entryX=0.5;entryY=1;entryDx=0;entryDy=0;" parent="1" target="_XHJdUySWQMbSV_TM1zQ-2" edge="1">
          <mxGeometry x="40" y="200" as="geometry">
            <mxPoint x="270" y="610" as="sourcePoint" />
            <mxPoint x="290" y="520" as="targetPoint" />
          </mxGeometry>
        </mxCell>
        <mxCell id="_XHJdUySWQMbSV_TM1zQ-7" value="d" style="ellipse;whiteSpace=wrap;html=1;aspect=fixed;" parent="1" vertex="1">
          <mxGeometry x="245" y="612" width="50" height="50" as="geometry" />
        </mxCell>
        <mxCell id="_XHJdUySWQMbSV_TM1zQ-36" style="edgeStyle=none;rounded=0;orthogonalLoop=1;jettySize=auto;html=1;entryX=0;entryY=0.9;entryDx=0;entryDy=0;endArrow=none;endFill=0;entryPerimeter=0;" parent="1" source="_XHJdUySWQMbSV_TM1zQ-35" target="_XHJdUySWQMbSV_TM1zQ-2" edge="1">
          <mxGeometry x="40" y="200" as="geometry" />
        </mxCell>
        <mxCell id="_XHJdUySWQMbSV_TM1zQ-35" value="NIF" style="ellipse;whiteSpace=wrap;html=1;align=center;" parent="1" vertex="1">
          <mxGeometry x="50" y="533" width="100" height="40" as="geometry" />
        </mxCell>
        <mxCell id="_XHJdUySWQMbSV_TM1zQ-38" style="edgeStyle=none;rounded=0;orthogonalLoop=1;jettySize=auto;html=1;exitX=0.5;exitY=0;exitDx=0;exitDy=0;entryX=0.25;entryY=1;entryDx=0;entryDy=0;endArrow=none;endFill=0;" parent="1" source="_XHJdUySWQMbSV_TM1zQ-37" target="_XHJdUySWQMbSV_TM1zQ-2" edge="1">
          <mxGeometry x="40" y="200" as="geometry" />
        </mxCell>
        <mxCell id="_XHJdUySWQMbSV_TM1zQ-37" value="email" style="ellipse;whiteSpace=wrap;html=1;align=center;" parent="1" vertex="1">
          <mxGeometry x="180" y="573" width="55" height="40" as="geometry" />
        </mxCell>
        <mxCell id="_XHJdUySWQMbSV_TM1zQ-40" style="edgeStyle=none;rounded=0;orthogonalLoop=1;jettySize=auto;html=1;entryX=0.25;entryY=1;entryDx=0;entryDy=0;endArrow=none;endFill=0;" parent="1" source="_XHJdUySWQMbSV_TM1zQ-39" target="_XHJdUySWQMbSV_TM1zQ-2" edge="1">
          <mxGeometry x="40" y="200" as="geometry" />
        </mxCell>
        <mxCell id="_XHJdUySWQMbSV_TM1zQ-39" value="Phone" style="ellipse;whiteSpace=wrap;html=1;align=center;" parent="1" vertex="1">
          <mxGeometry x="60" y="594" width="100" height="40" as="geometry" />
        </mxCell>
        <mxCell id="_XHJdUySWQMbSV_TM1zQ-11" style="rounded=0;orthogonalLoop=1;jettySize=auto;html=1;exitX=0;exitY=1;exitDx=0;exitDy=0;entryX=0.75;entryY=0;entryDx=0;entryDy=0;endArrow=none;endFill=0;" parent="1" source="_XHJdUySWQMbSV_TM1zQ-7" target="_XHJdUySWQMbSV_TM1zQ-9" edge="1">
          <mxGeometry relative="1" as="geometry" />
        </mxCell>
        <mxCell id="_XHJdUySWQMbSV_TM1zQ-12" style="edgeStyle=none;rounded=0;orthogonalLoop=1;jettySize=auto;html=1;exitX=1;exitY=1;exitDx=0;exitDy=0;entryX=0.5;entryY=0;entryDx=0;entryDy=0;endArrow=none;endFill=0;" parent="1" source="_XHJdUySWQMbSV_TM1zQ-7" target="_XHJdUySWQMbSV_TM1zQ-10" edge="1">
          <mxGeometry relative="1" as="geometry" />
        </mxCell>
        <mxCell id="_XHJdUySWQMbSV_TM1zQ-137" style="edgeStyle=none;rounded=0;orthogonalLoop=1;jettySize=auto;html=1;exitX=1;exitY=0.5;exitDx=0;exitDy=0;entryX=0;entryY=0.5;entryDx=0;entryDy=0;endArrow=none;endFill=0;shape=link;" parent="1" source="_XHJdUySWQMbSV_TM1zQ-135" target="_XHJdUySWQMbSV_TM1zQ-103" edge="1">
          <mxGeometry relative="1" as="geometry" />
        </mxCell>
        <mxCell id="_XHJdUySWQMbSV_TM1zQ-139" value="N" style="edgeLabel;html=1;align=center;verticalAlign=middle;resizable=0;points=[];" parent="_XHJdUySWQMbSV_TM1zQ-137" vertex="1" connectable="0">
          <mxGeometry x="0.7126" y="2" relative="1" as="geometry">
            <mxPoint x="21" y="-9" as="offset" />
          </mxGeometry>
        </mxCell>
        <mxCell id="_XHJdUySWQMbSV_TM1zQ-138" style="edgeStyle=orthogonalEdgeStyle;rounded=0;orthogonalLoop=1;jettySize=auto;html=1;entryX=0;entryY=0.5;entryDx=0;entryDy=0;endArrow=none;endFill=0;shape=link;exitX=1;exitY=0.5;exitDx=0;exitDy=0;" parent="1" source="g5hpthtUYgiMCNm3RAKt-8" target="_XHJdUySWQMbSV_TM1zQ-104" edge="1">
          <mxGeometry relative="1" as="geometry">
            <mxPoint x="610" y="476" as="sourcePoint" />
          </mxGeometry>
        </mxCell>
        <mxCell id="_XHJdUySWQMbSV_TM1zQ-140" value="N" style="edgeLabel;html=1;align=center;verticalAlign=middle;resizable=0;points=[];" parent="_XHJdUySWQMbSV_TM1zQ-138" vertex="1" connectable="0">
          <mxGeometry x="0.7464" relative="1" as="geometry">
            <mxPoint x="24" y="13" as="offset" />
          </mxGeometry>
        </mxCell>
        <mxCell id="_XHJdUySWQMbSV_TM1zQ-135" value="Alert" style="shape=rhombus;perimeter=rhombusPerimeter;whiteSpace=wrap;html=1;align=center;" parent="1" vertex="1">
          <mxGeometry x="680" y="354" width="120" height="60" as="geometry" />
        </mxCell>
        <mxCell id="_XHJdUySWQMbSV_TM1zQ-142" value="" style="group;rotation=110;" parent="1" vertex="1" connectable="0">
          <mxGeometry x="1270" y="620" width="10" as="geometry" />
        </mxCell>
        <mxCell id="_XHJdUySWQMbSV_TM1zQ-143" style="edgeStyle=none;rounded=0;orthogonalLoop=1;jettySize=auto;html=1;exitX=1;exitY=1;exitDx=0;exitDy=0;entryX=0.5;entryY=0;entryDx=0;entryDy=0;endArrow=none;endFill=0;" parent="_XHJdUySWQMbSV_TM1zQ-142" edge="1">
          <mxGeometry relative="1" as="geometry" />
        </mxCell>
        <mxCell id="_XHJdUySWQMbSV_TM1zQ-144" value="" style="endArrow=none;html=1;" parent="_XHJdUySWQMbSV_TM1zQ-142" edge="1">
          <mxGeometry width="50" height="50" relative="1" as="geometry">
            <mxPoint x="14" y="-23" as="sourcePoint" />
            <mxPoint x="11" y="13" as="targetPoint" />
            <Array as="points">
              <mxPoint x="7" y="-5" />
            </Array>
          </mxGeometry>
        </mxCell>
        <mxCell id="_XHJdUySWQMbSV_TM1zQ-145" style="edgeStyle=orthogonalEdgeStyle;rounded=0;orthogonalLoop=1;jettySize=auto;html=1;exitX=1;exitY=0.5;exitDx=0;exitDy=0;entryX=0;entryY=0.5;entryDx=0;entryDy=0;endArrow=none;endFill=0;" parent="1" source="_XHJdUySWQMbSV_TM1zQ-10" target="_XHJdUySWQMbSV_TM1zQ-133" edge="1">
          <mxGeometry relative="1" as="geometry">
            <Array as="points">
              <mxPoint x="410" y="744" />
              <mxPoint x="410" y="1060" />
            </Array>
            <mxPoint x="560" y="1060" as="targetPoint" />
          </mxGeometry>
        </mxCell>
        <mxCell id="_XHJdUySWQMbSV_TM1zQ-148" value="1" style="edgeLabel;html=1;align=center;verticalAlign=middle;resizable=0;points=[];" parent="_XHJdUySWQMbSV_TM1zQ-145" vertex="1" connectable="0">
          <mxGeometry x="-0.6125" relative="1" as="geometry">
            <mxPoint x="-46.06" y="-45.59" as="offset" />
          </mxGeometry>
        </mxCell>
        <mxCell id="_XHJdUySWQMbSV_TM1zQ-157" style="edgeStyle=none;rounded=0;orthogonalLoop=1;jettySize=auto;html=1;entryX=0.25;entryY=1;entryDx=0;entryDy=0;endArrow=none;endFill=0;" parent="1" source="_XHJdUySWQMbSV_TM1zQ-156" target="_XHJdUySWQMbSV_TM1zQ-104" edge="1">
          <mxGeometry relative="1" as="geometry" />
        </mxCell>
        <mxCell id="_XHJdUySWQMbSV_TM1zQ-156" value="Location" style="ellipse;whiteSpace=wrap;html=1;align=center;" parent="1" vertex="1">
          <mxGeometry x="890" y="600" width="100" height="40" as="geometry" />
        </mxCell>
        <mxCell id="f4FxOrE70DpgZQ_qf5H--2" style="rounded=0;orthogonalLoop=1;jettySize=auto;html=1;entryX=0.25;entryY=0;entryDx=0;entryDy=0;endArrow=none;endFill=0;" parent="1" source="f4FxOrE70DpgZQ_qf5H--1" target="_XHJdUySWQMbSV_TM1zQ-103" edge="1">
          <mxGeometry relative="1" as="geometry" />
        </mxCell>
        <mxCell id="f4FxOrE70DpgZQ_qf5H--1" value="Missing Date" style="ellipse;whiteSpace=wrap;html=1;align=center;" parent="1" vertex="1">
          <mxGeometry x="929" y="280" width="100" height="40" as="geometry" />
        </mxCell>
        <mxCell id="g5hpthtUYgiMCNm3RAKt-3" style="edgeStyle=orthogonalEdgeStyle;rounded=0;orthogonalLoop=1;jettySize=auto;html=1;endArrow=none;endFill=0;exitX=1;exitY=0.5;exitDx=0;exitDy=0;shape=link;entryX=0.75;entryY=1;entryDx=0;entryDy=0;" parent="1" source="g5hpthtUYgiMCNm3RAKt-1" target="_XHJdUySWQMbSV_TM1zQ-102" edge="1">
          <mxGeometry relative="1" as="geometry">
            <mxPoint x="1120" y="990" as="targetPoint" />
            <Array as="points">
              <mxPoint x="830" y="1172" />
              <mxPoint x="830" y="1100" />
              <mxPoint x="1075" y="1100" />
            </Array>
          </mxGeometry>
        </mxCell>
        <mxCell id="g5hpthtUYgiMCNm3RAKt-4" value="N" style="edgeLabel;html=1;align=center;verticalAlign=middle;resizable=0;points=[];" parent="g5hpthtUYgiMCNm3RAKt-3" vertex="1" connectable="0">
          <mxGeometry x="0.8771" y="2" relative="1" as="geometry">
            <mxPoint x="-8" y="-22.820000000000004" as="offset" />
          </mxGeometry>
        </mxCell>
        <mxCell id="g5hpthtUYgiMCNm3RAKt-1" value="Belongs" style="shape=rhombus;perimeter=rhombusPerimeter;whiteSpace=wrap;html=1;align=center;" parent="1" vertex="1">
          <mxGeometry x="610" y="1142.35" width="120" height="60" as="geometry" />
        </mxCell>
        <mxCell id="g5hpthtUYgiMCNm3RAKt-2" style="edgeStyle=orthogonalEdgeStyle;rounded=0;orthogonalLoop=1;jettySize=auto;html=1;entryX=0;entryY=0.5;entryDx=0;entryDy=0;endArrow=none;endFill=0;" parent="1" source="_XHJdUySWQMbSV_TM1zQ-1" target="g5hpthtUYgiMCNm3RAKt-1" edge="1">
          <mxGeometry relative="1" as="geometry">
            <mxPoint x="560" y="1172.35" as="targetPoint" />
          </mxGeometry>
        </mxCell>
        <mxCell id="g5hpthtUYgiMCNm3RAKt-5" value="1" style="edgeLabel;html=1;align=center;verticalAlign=middle;resizable=0;points=[];" parent="g5hpthtUYgiMCNm3RAKt-2" vertex="1" connectable="0">
          <mxGeometry x="-0.6853" y="1" relative="1" as="geometry">
            <mxPoint x="-22.94" y="-11.35" as="offset" />
          </mxGeometry>
        </mxCell>
        <mxCell id="g5hpthtUYgiMCNm3RAKt-9" style="rounded=0;orthogonalLoop=1;jettySize=auto;html=1;entryX=1;entryY=0.75;entryDx=0;entryDy=0;endArrow=none;endFill=0;exitX=0;exitY=0.5;exitDx=0;exitDy=0;edgeStyle=orthogonalEdgeStyle;" parent="1" source="g5hpthtUYgiMCNm3RAKt-8" target="_XHJdUySWQMbSV_TM1zQ-2" edge="1">
          <mxGeometry relative="1" as="geometry">
            <Array as="points">
              <mxPoint x="500" y="563" />
              <mxPoint x="500" y="504" />
            </Array>
          </mxGeometry>
        </mxCell>
        <mxCell id="g5hpthtUYgiMCNm3RAKt-10" value="1" style="edgeLabel;html=1;align=center;verticalAlign=middle;resizable=0;points=[];" parent="g5hpthtUYgiMCNm3RAKt-9" vertex="1" connectable="0">
          <mxGeometry x="0.7966" y="1" relative="1" as="geometry">
            <mxPoint x="-29" y="6" as="offset" />
          </mxGeometry>
        </mxCell>
        <mxCell id="g5hpthtUYgiMCNm3RAKt-8" value="Report" style="shape=rhombus;perimeter=rhombusPerimeter;whiteSpace=wrap;html=1;align=center;" parent="1" vertex="1">
          <mxGeometry x="620" y="533" width="120" height="60" as="geometry" />
        </mxCell>
        <mxCell id="g5hpthtUYgiMCNm3RAKt-12" style="rounded=0;orthogonalLoop=1;jettySize=auto;html=1;exitX=0.5;exitY=0;exitDx=0;exitDy=0;entryX=0.5;entryY=1;entryDx=0;entryDy=0;endArrow=none;endFill=0;" parent="1" source="g5hpthtUYgiMCNm3RAKt-11" target="_XHJdUySWQMbSV_TM1zQ-104" edge="1">
          <mxGeometry relative="1" as="geometry" />
        </mxCell>
        <mxCell id="g5hpthtUYgiMCNm3RAKt-11" value="isActive" style="ellipse;whiteSpace=wrap;html=1;align=center;" parent="1" vertex="1">
          <mxGeometry x="980" y="640" width="100" height="40" as="geometry" />
        </mxCell>
        <mxCell id="g5hpthtUYgiMCNm3RAKt-14" style="edgeStyle=none;rounded=0;orthogonalLoop=1;jettySize=auto;html=1;entryX=0.5;entryY=0;entryDx=0;entryDy=0;endArrow=none;endFill=0;" parent="1" source="g5hpthtUYgiMCNm3RAKt-13" target="_XHJdUySWQMbSV_TM1zQ-103" edge="1">
          <mxGeometry relative="1" as="geometry" />
        </mxCell>
        <mxCell id="g5hpthtUYgiMCNm3RAKt-13" value="isMissing" style="ellipse;whiteSpace=wrap;html=1;align=center;" parent="1" vertex="1">
          <mxGeometry x="1040" y="270" width="100" height="40" as="geometry" />
        </mxCell>
        <mxCell id="g5hpthtUYgiMCNm3RAKt-16" style="edgeStyle=none;rounded=0;orthogonalLoop=1;jettySize=auto;html=1;exitX=0.5;exitY=0;exitDx=0;exitDy=0;entryX=0;entryY=1;entryDx=0;entryDy=0;endArrow=none;endFill=0;" parent="1" source="g5hpthtUYgiMCNm3RAKt-15" target="_XHJdUySWQMbSV_TM1zQ-10" edge="1">
          <mxGeometry relative="1" as="geometry" />
        </mxCell>
        <mxCell id="g5hpthtUYgiMCNm3RAKt-15" value="isActive" style="ellipse;whiteSpace=wrap;html=1;align=center;" parent="1" vertex="1">
          <mxGeometry x="145" y="780" width="100" height="40" as="geometry" />
        </mxCell>
        <mxCell id="g5hpthtUYgiMCNm3RAKt-19" style="edgeStyle=none;rounded=0;orthogonalLoop=1;jettySize=auto;html=1;entryX=1;entryY=0;entryDx=0;entryDy=0;endArrow=none;endFill=0;" parent="1" source="g5hpthtUYgiMCNm3RAKt-18" target="_XHJdUySWQMbSV_TM1zQ-102" edge="1">
          <mxGeometry relative="1" as="geometry" />
        </mxCell>
        <mxCell id="g5hpthtUYgiMCNm3RAKt-18" value="isOnFAT" style="ellipse;whiteSpace=wrap;html=1;align=center;" parent="1" vertex="1">
          <mxGeometry x="1147" y="880" width="100" height="40" as="geometry" />
        </mxCell>
        <mxCell id="MiMDxGJ4IfNCkflv9vhh-1" style="rounded=0;orthogonalLoop=1;jettySize=auto;html=1;exitX=0.5;exitY=0;exitDx=0;exitDy=0;entryX=1;entryY=1;entryDx=0;entryDy=0;endArrow=none;endFill=0;" parent="1" source="MiMDxGJ4IfNCkflv9vhh-2" target="_XHJdUySWQMbSV_TM1zQ-104" edge="1">
          <mxGeometry relative="1" as="geometry">
            <mxPoint x="1160" y="587" as="targetPoint" />
          </mxGeometry>
        </mxCell>
        <mxCell id="MiMDxGJ4IfNCkflv9vhh-2" value="foundDate" style="ellipse;whiteSpace=wrap;html=1;align=center;" parent="1" vertex="1">
          <mxGeometry x="1090" y="623" width="100" height="40" as="geometry" />
        </mxCell>
        <mxCell id="MiMDxGJ4IfNCkflv9vhh-4" style="rounded=0;orthogonalLoop=1;jettySize=auto;html=1;entryX=0.25;entryY=0;entryDx=0;entryDy=0;endArrow=none;endFill=0;" parent="1" source="MiMDxGJ4IfNCkflv9vhh-3" target="_XHJdUySWQMbSV_TM1zQ-3" edge="1">
          <mxGeometry relative="1" as="geometry" />
        </mxCell>
        <mxCell id="MiMDxGJ4IfNCkflv9vhh-3" value="chipId" style="ellipse;whiteSpace=wrap;html=1;align=center;" parent="1" vertex="1">
          <mxGeometry x="1440" y="500" width="100" height="40" as="geometry" />
        </mxCell>
        <mxCell id="MiMDxGJ4IfNCkflv9vhh-6" value="description" style="ellipse;whiteSpace=wrap;html=1;align=center;" parent="1" vertex="1">
          <mxGeometry x="1405" y="750" width="100" height="40" as="geometry" />
        </mxCell>
        <mxCell id="MiMDxGJ4IfNCkflv9vhh-9" value="priority" style="ellipse;whiteSpace=wrap;html=1;align=center;" parent="1" vertex="1">
          <mxGeometry x="1000" y="466" width="100" height="40" as="geometry" />
        </mxCell>
        <mxCell id="MiMDxGJ4IfNCkflv9vhh-17" style="edgeStyle=orthogonalEdgeStyle;rounded=0;orthogonalLoop=1;jettySize=auto;html=1;exitX=0.5;exitY=1;exitDx=0;exitDy=0;entryX=0.5;entryY=0;entryDx=0;entryDy=0;endArrow=none;endFill=0;" parent="1" source="MiMDxGJ4IfNCkflv9vhh-11" target="MiMDxGJ4IfNCkflv9vhh-16" edge="1">
          <mxGeometry relative="1" as="geometry" />
        </mxCell>
        <mxCell id="MiMDxGJ4IfNCkflv9vhh-11" value="nature" style="rounded=1;arcSize=10;whiteSpace=wrap;html=1;align=center;" parent="1" vertex="1">
          <mxGeometry x="1510" y="188" width="100" height="40" as="geometry" />
        </mxCell>
        <mxCell id="MiMDxGJ4IfNCkflv9vhh-13" style="edgeStyle=none;rounded=0;orthogonalLoop=1;jettySize=auto;html=1;exitX=1;exitY=1;exitDx=0;exitDy=0;entryX=0;entryY=0.5;entryDx=0;entryDy=0;endArrow=none;endFill=0;" parent="1" source="MiMDxGJ4IfNCkflv9vhh-12" target="MiMDxGJ4IfNCkflv9vhh-11" edge="1">
          <mxGeometry relative="1" as="geometry" />
        </mxCell>
        <mxCell id="MiMDxGJ4IfNCkflv9vhh-12" value="id" style="ellipse;whiteSpace=wrap;html=1;align=center;fontStyle=4;" parent="1" vertex="1">
          <mxGeometry x="1380" y="148" width="100" height="40" as="geometry" />
        </mxCell>
        <mxCell id="MiMDxGJ4IfNCkflv9vhh-15" style="edgeStyle=none;rounded=0;orthogonalLoop=1;jettySize=auto;html=1;exitX=0.5;exitY=1;exitDx=0;exitDy=0;entryX=0.5;entryY=0;entryDx=0;entryDy=0;endArrow=none;endFill=0;" parent="1" source="MiMDxGJ4IfNCkflv9vhh-14" target="MiMDxGJ4IfNCkflv9vhh-11" edge="1">
          <mxGeometry relative="1" as="geometry" />
        </mxCell>
        <mxCell id="MiMDxGJ4IfNCkflv9vhh-14" value="parent_nature_id" style="ellipse;whiteSpace=wrap;html=1;align=center;" parent="1" vertex="1">
          <mxGeometry x="1510" y="108" width="100" height="40" as="geometry" />
        </mxCell>
        <mxCell id="MiMDxGJ4IfNCkflv9vhh-18" style="edgeStyle=orthogonalEdgeStyle;rounded=0;orthogonalLoop=1;jettySize=auto;html=1;exitX=0.5;exitY=1;exitDx=0;exitDy=0;entryX=0.5;entryY=0;entryDx=0;entryDy=0;endArrow=none;endFill=0;shape=link;" parent="1" source="MiMDxGJ4IfNCkflv9vhh-16" target="_XHJdUySWQMbSV_TM1zQ-3" edge="1">
          <mxGeometry relative="1" as="geometry">
            <Array as="points">
              <mxPoint x="1560" y="410" />
              <mxPoint x="1560" y="410" />
            </Array>
          </mxGeometry>
        </mxCell>
        <mxCell id="MiMDxGJ4IfNCkflv9vhh-19" value="1" style="edgeLabel;html=1;align=center;verticalAlign=middle;resizable=0;points=[];" parent="MiMDxGJ4IfNCkflv9vhh-18" vertex="1" connectable="0">
          <mxGeometry x="-0.5236" y="29" relative="1" as="geometry">
            <mxPoint x="11" y="178.43" as="offset" />
          </mxGeometry>
        </mxCell>
        <mxCell id="MiMDxGJ4IfNCkflv9vhh-16" value="Relationship" style="shape=rhombus;perimeter=rhombusPerimeter;whiteSpace=wrap;html=1;align=center;" parent="1" vertex="1">
          <mxGeometry x="1500" y="310" width="120" height="60" as="geometry" />
        </mxCell>
        <mxCell id="MiMDxGJ4IfNCkflv9vhh-20" value="1" style="text;html=1;strokeColor=none;fillColor=none;align=center;verticalAlign=middle;whiteSpace=wrap;rounded=0;" parent="1" vertex="1">
          <mxGeometry x="1545" y="233" width="10" height="10" as="geometry" />
        </mxCell>
        <mxCell id="MiMDxGJ4IfNCkflv9vhh-39" style="edgeStyle=orthogonalEdgeStyle;rounded=0;orthogonalLoop=1;jettySize=auto;html=1;exitX=0.5;exitY=0;exitDx=0;exitDy=0;entryX=0.5;entryY=1;entryDx=0;entryDy=0;endArrow=none;endFill=0;shape=link;" parent="1" source="MiMDxGJ4IfNCkflv9vhh-31" target="MiMDxGJ4IfNCkflv9vhh-37" edge="1">
          <mxGeometry relative="1" as="geometry" />
        </mxCell>
        <mxCell id="MiMDxGJ4IfNCkflv9vhh-31" value="Photo" style="rounded=1;arcSize=10;whiteSpace=wrap;html=1;align=center;" parent="1" vertex="1">
          <mxGeometry x="1470" y="890" width="100" height="40" as="geometry" />
        </mxCell>
        <mxCell id="MiMDxGJ4IfNCkflv9vhh-34" style="rounded=0;orthogonalLoop=1;jettySize=auto;html=1;exitX=1;exitY=0.5;exitDx=0;exitDy=0;entryX=0;entryY=0.5;entryDx=0;entryDy=0;endArrow=none;endFill=0;" parent="1" source="MiMDxGJ4IfNCkflv9vhh-33" target="MiMDxGJ4IfNCkflv9vhh-31" edge="1">
          <mxGeometry relative="1" as="geometry" />
        </mxCell>
        <mxCell id="MiMDxGJ4IfNCkflv9vhh-33" value="photoId" style="ellipse;whiteSpace=wrap;html=1;align=center;fontStyle=4;" parent="1" vertex="1">
          <mxGeometry x="1330" y="890" width="100" height="40" as="geometry" />
        </mxCell>
        <mxCell id="MiMDxGJ4IfNCkflv9vhh-35" style="rounded=0;orthogonalLoop=1;jettySize=auto;html=1;exitX=0.5;exitY=0;exitDx=0;exitDy=0;entryX=0.75;entryY=1;entryDx=0;entryDy=0;endArrow=none;endFill=0;" parent="1" source="MiMDxGJ4IfNCkflv9vhh-36" target="MiMDxGJ4IfNCkflv9vhh-31" edge="1">
          <mxGeometry relative="1" as="geometry">
            <mxPoint x="1630" y="964" as="targetPoint" />
          </mxGeometry>
        </mxCell>
        <mxCell id="MiMDxGJ4IfNCkflv9vhh-36" value="img" style="ellipse;whiteSpace=wrap;html=1;align=center;fontStyle=0;" parent="1" vertex="1">
          <mxGeometry x="1520" y="950" width="100" height="40" as="geometry" />
        </mxCell>
        <mxCell id="MiMDxGJ4IfNCkflv9vhh-38" style="rounded=0;orthogonalLoop=1;jettySize=auto;html=1;exitX=0.5;exitY=0;exitDx=0;exitDy=0;entryX=0.25;entryY=1;entryDx=0;entryDy=0;endArrow=none;endFill=0;" parent="1" source="MiMDxGJ4IfNCkflv9vhh-37" target="_XHJdUySWQMbSV_TM1zQ-3" edge="1">
          <mxGeometry relative="1" as="geometry">
            <mxPoint x="1440" y="860" as="sourcePoint" />
            <mxPoint x="1555" y="677" as="targetPoint" />
          </mxGeometry>
        </mxCell>
        <mxCell id="MiMDxGJ4IfNCkflv9vhh-41" value="1" style="edgeLabel;html=1;align=center;verticalAlign=middle;resizable=0;points=[];" parent="MiMDxGJ4IfNCkflv9vhh-38" vertex="1" connectable="0">
          <mxGeometry x="0.6484" relative="1" as="geometry">
            <mxPoint x="-5.380000000000001" y="-15.219999999999997" as="offset" />
          </mxGeometry>
        </mxCell>
        <mxCell id="MiMDxGJ4IfNCkflv9vhh-37" value="Relationship" style="shape=rhombus;perimeter=rhombusPerimeter;whiteSpace=wrap;html=1;align=center;" parent="1" vertex="1">
          <mxGeometry x="1460" y="790" width="120" height="60" as="geometry" />
        </mxCell>
        <mxCell id="MiMDxGJ4IfNCkflv9vhh-40" value="N" style="text;html=1;strokeColor=none;fillColor=none;align=center;verticalAlign=middle;whiteSpace=wrap;rounded=0;" parent="1" vertex="1">
          <mxGeometry x="1520" y="878" width="20" height="6" as="geometry" />
        </mxCell>
        <mxCell id="MiMDxGJ4IfNCkflv9vhh-44" value="1" style="edgeStyle=orthogonalEdgeStyle;rounded=0;orthogonalLoop=1;jettySize=auto;html=1;exitX=0.5;exitY=0;exitDx=0;exitDy=0;entryX=0.5;entryY=1;entryDx=0;entryDy=0;endArrow=none;endFill=0;" parent="1" source="MiMDxGJ4IfNCkflv9vhh-42" target="MiMDxGJ4IfNCkflv9vhh-43" edge="1">
          <mxGeometry y="-14" relative="1" as="geometry">
            <Array as="points">
              <mxPoint x="1850" y="787" />
              <mxPoint x="1850" y="787" />
            </Array>
            <mxPoint x="-4" y="10" as="offset" />
          </mxGeometry>
        </mxCell>
        <mxCell id="MiMDxGJ4IfNCkflv9vhh-42" value="Size" style="rounded=1;arcSize=10;whiteSpace=wrap;html=1;align=center;" parent="1" vertex="1">
          <mxGeometry x="1800" y="807" width="100" height="40" as="geometry" />
        </mxCell>
        <mxCell id="MiMDxGJ4IfNCkflv9vhh-45" value="1" style="rounded=0;orthogonalLoop=1;jettySize=auto;html=1;endArrow=none;endFill=0;exitX=0;exitY=0.5;exitDx=0;exitDy=0;entryX=0.75;entryY=1;entryDx=0;entryDy=0;shape=link;" parent="1" target="_XHJdUySWQMbSV_TM1zQ-3" edge="1" source="MiMDxGJ4IfNCkflv9vhh-43">
          <mxGeometry x="0.9439" y="9" relative="1" as="geometry">
            <mxPoint x="1690" y="840" as="sourcePoint" />
            <mxPoint x="1585" y="657" as="targetPoint" />
            <mxPoint as="offset" />
            <Array as="points">
              <mxPoint x="1585" y="737" />
            </Array>
          </mxGeometry>
        </mxCell>
        <mxCell id="MiMDxGJ4IfNCkflv9vhh-43" value="Relationship" style="shape=rhombus;perimeter=rhombusPerimeter;whiteSpace=wrap;html=1;align=center;" parent="1" vertex="1">
          <mxGeometry x="1790" y="707" width="120" height="60" as="geometry" />
        </mxCell>
        <mxCell id="MiMDxGJ4IfNCkflv9vhh-47" style="edgeStyle=none;rounded=0;orthogonalLoop=1;jettySize=auto;html=1;exitX=0.5;exitY=0;exitDx=0;exitDy=0;entryX=0.25;entryY=1;entryDx=0;entryDy=0;endArrow=none;endFill=0;" parent="1" source="MiMDxGJ4IfNCkflv9vhh-46" target="MiMDxGJ4IfNCkflv9vhh-42" edge="1">
          <mxGeometry relative="1" as="geometry" />
        </mxCell>
        <mxCell id="MiMDxGJ4IfNCkflv9vhh-46" value="sizeId" style="ellipse;whiteSpace=wrap;html=1;align=center;fontStyle=4;" parent="1" vertex="1">
          <mxGeometry x="1750" y="887" width="100" height="40" as="geometry" />
        </mxCell>
        <mxCell id="MiMDxGJ4IfNCkflv9vhh-48" style="edgeStyle=none;rounded=0;orthogonalLoop=1;jettySize=auto;html=1;exitX=0.5;exitY=0;exitDx=0;exitDy=0;entryX=0.75;entryY=1;entryDx=0;entryDy=0;endArrow=none;endFill=0;" parent="1" source="MiMDxGJ4IfNCkflv9vhh-49" target="MiMDxGJ4IfNCkflv9vhh-42" edge="1">
          <mxGeometry relative="1" as="geometry">
            <mxPoint x="1935" y="847" as="targetPoint" />
          </mxGeometry>
        </mxCell>
        <mxCell id="MiMDxGJ4IfNCkflv9vhh-49" value="size" style="ellipse;whiteSpace=wrap;html=1;align=center;fontStyle=0;" parent="1" vertex="1">
          <mxGeometry x="1860" y="887" width="100" height="40" as="geometry" />
        </mxCell>
        <mxCell id="MiMDxGJ4IfNCkflv9vhh-102" style="edgeStyle=orthogonalEdgeStyle;rounded=0;orthogonalLoop=1;jettySize=auto;html=1;exitX=0.5;exitY=1;exitDx=0;exitDy=0;entryX=1;entryY=0.5;entryDx=0;entryDy=0;endArrow=none;endFill=0;" parent="1" source="MiMDxGJ4IfNCkflv9vhh-61" target="MiMDxGJ4IfNCkflv9vhh-101" edge="1">
          <mxGeometry relative="1" as="geometry">
            <mxPoint x="1680" y="502" as="targetPoint" />
          </mxGeometry>
        </mxCell>
        <mxCell id="I0KIHZFSOODaHlHC01v1-5" value="1" style="edgeLabel;html=1;align=center;verticalAlign=middle;resizable=0;points=[];" vertex="1" connectable="0" parent="MiMDxGJ4IfNCkflv9vhh-102">
          <mxGeometry x="-0.7419" y="-1" relative="1" as="geometry">
            <mxPoint x="6" y="-12" as="offset" />
          </mxGeometry>
        </mxCell>
        <mxCell id="MiMDxGJ4IfNCkflv9vhh-61" value="furLength" style="rounded=1;arcSize=10;whiteSpace=wrap;html=1;align=center;" parent="1" vertex="1">
          <mxGeometry x="1820" y="466" width="100" height="40" as="geometry" />
        </mxCell>
        <mxCell id="MiMDxGJ4IfNCkflv9vhh-65" style="edgeStyle=none;rounded=0;orthogonalLoop=1;jettySize=auto;html=1;endArrow=none;endFill=0;" parent="1" source="MiMDxGJ4IfNCkflv9vhh-63" target="MiMDxGJ4IfNCkflv9vhh-61" edge="1">
          <mxGeometry relative="1" as="geometry" />
        </mxCell>
        <mxCell id="MiMDxGJ4IfNCkflv9vhh-63" value="furLengthId" style="ellipse;whiteSpace=wrap;html=1;align=center;fontStyle=4;" parent="1" vertex="1">
          <mxGeometry x="1750" y="414" width="100" height="40" as="geometry" />
        </mxCell>
        <mxCell id="MiMDxGJ4IfNCkflv9vhh-103" style="rounded=0;orthogonalLoop=1;jettySize=auto;html=1;exitX=0.5;exitY=1;exitDx=0;exitDy=0;entryX=1;entryY=0;entryDx=0;entryDy=0;endArrow=none;endFill=0;shape=link;" parent="1" source="MiMDxGJ4IfNCkflv9vhh-101" target="_XHJdUySWQMbSV_TM1zQ-3" edge="1">
          <mxGeometry relative="1" as="geometry">
            <Array as="points">
              <mxPoint x="1680" y="617" />
            </Array>
          </mxGeometry>
        </mxCell>
        <mxCell id="MiMDxGJ4IfNCkflv9vhh-101" value="Relationship" style="shape=rhombus;perimeter=rhombusPerimeter;whiteSpace=wrap;html=1;align=center;" parent="1" vertex="1">
          <mxGeometry x="1620" y="501" width="120" height="60" as="geometry" />
        </mxCell>
        <mxCell id="MiMDxGJ4IfNCkflv9vhh-114" style="edgeStyle=orthogonalEdgeStyle;rounded=0;orthogonalLoop=1;jettySize=auto;html=1;entryX=1;entryY=0.5;entryDx=0;entryDy=0;endArrow=none;endFill=0;shape=link;" parent="1" source="MiMDxGJ4IfNCkflv9vhh-112" target="_XHJdUySWQMbSV_TM1zQ-3" edge="1">
          <mxGeometry relative="1" as="geometry" />
        </mxCell>
        <mxCell id="I0KIHZFSOODaHlHC01v1-4" value="1" style="edgeLabel;html=1;align=center;verticalAlign=middle;resizable=0;points=[];" vertex="1" connectable="0" parent="MiMDxGJ4IfNCkflv9vhh-114">
          <mxGeometry x="0.6616" y="-1" relative="1" as="geometry">
            <mxPoint x="-23.57" y="11" as="offset" />
          </mxGeometry>
        </mxCell>
        <mxCell id="MiMDxGJ4IfNCkflv9vhh-112" value="Relationship" style="shape=rhombus;perimeter=rhombusPerimeter;whiteSpace=wrap;html=1;align=center;" parent="1" vertex="1">
          <mxGeometry x="1780" y="607" width="120" height="60" as="geometry" />
        </mxCell>
        <mxCell id="MiMDxGJ4IfNCkflv9vhh-121" style="edgeStyle=orthogonalEdgeStyle;rounded=0;orthogonalLoop=1;jettySize=auto;html=1;entryX=1;entryY=0.5;entryDx=0;entryDy=0;endArrow=none;endFill=0;" parent="1" source="MiMDxGJ4IfNCkflv9vhh-115" target="MiMDxGJ4IfNCkflv9vhh-112" edge="1">
          <mxGeometry relative="1" as="geometry">
            <Array as="points">
              <mxPoint x="1970" y="637" />
              <mxPoint x="1970" y="637" />
            </Array>
          </mxGeometry>
        </mxCell>
        <mxCell id="I0KIHZFSOODaHlHC01v1-3" value="1" style="edgeLabel;html=1;align=center;verticalAlign=middle;resizable=0;points=[];" vertex="1" connectable="0" parent="MiMDxGJ4IfNCkflv9vhh-121">
          <mxGeometry x="-0.4286" y="19" relative="1" as="geometry">
            <mxPoint x="19" y="-26" as="offset" />
          </mxGeometry>
        </mxCell>
        <mxCell id="MiMDxGJ4IfNCkflv9vhh-115" value="furColor" style="rounded=1;arcSize=10;whiteSpace=wrap;html=1;align=center;" parent="1" vertex="1">
          <mxGeometry x="1998" y="617" width="100" height="40" as="geometry" />
        </mxCell>
        <mxCell id="MiMDxGJ4IfNCkflv9vhh-116" style="rounded=0;orthogonalLoop=1;jettySize=auto;html=1;exitX=0;exitY=1;exitDx=0;exitDy=0;entryX=1;entryY=0;entryDx=0;entryDy=0;endArrow=none;endFill=0;" parent="1" source="MiMDxGJ4IfNCkflv9vhh-117" target="MiMDxGJ4IfNCkflv9vhh-115" edge="1">
          <mxGeometry relative="1" as="geometry" />
        </mxCell>
        <mxCell id="MiMDxGJ4IfNCkflv9vhh-117" value="furColorId" style="ellipse;whiteSpace=wrap;html=1;align=center;fontStyle=4;" parent="1" vertex="1">
          <mxGeometry x="2140" y="567" width="100" height="40" as="geometry" />
        </mxCell>
        <mxCell id="MiMDxGJ4IfNCkflv9vhh-118" style="rounded=0;orthogonalLoop=1;jettySize=auto;html=1;exitX=0;exitY=0;exitDx=0;exitDy=0;endArrow=none;endFill=0;entryX=1;entryY=1;entryDx=0;entryDy=0;" parent="1" source="MiMDxGJ4IfNCkflv9vhh-119" target="MiMDxGJ4IfNCkflv9vhh-115" edge="1">
          <mxGeometry relative="1" as="geometry" />
        </mxCell>
        <mxCell id="MiMDxGJ4IfNCkflv9vhh-119" value="furColor" style="ellipse;whiteSpace=wrap;html=1;align=center;" parent="1" vertex="1">
          <mxGeometry x="2140" y="667" width="100" height="40" as="geometry" />
        </mxCell>
        <mxCell id="zulpsvngGmDIfZ2tsgrX-1" style="rounded=0;orthogonalLoop=1;jettySize=auto;html=1;exitX=0.5;exitY=0;exitDx=0;exitDy=0;entryX=0.25;entryY=1;entryDx=0;entryDy=0;endArrow=none;endFill=0;" parent="1" source="zulpsvngGmDIfZ2tsgrX-2" target="MiMDxGJ4IfNCkflv9vhh-31" edge="1">
          <mxGeometry relative="1" as="geometry">
            <mxPoint x="1435" y="960" as="targetPoint" />
          </mxGeometry>
        </mxCell>
        <mxCell id="zulpsvngGmDIfZ2tsgrX-2" value="caption" style="ellipse;whiteSpace=wrap;html=1;align=center;fontStyle=0;" parent="1" vertex="1">
          <mxGeometry x="1390" y="950" width="100" height="40" as="geometry" />
        </mxCell>
        <mxCell id="U5pFRukm2JmZBXN3nTK0-1" value="Adoption" style="rounded=1;arcSize=10;whiteSpace=wrap;html=1;align=center;" parent="1" vertex="1">
          <mxGeometry x="630" y="750" width="100" height="40" as="geometry" />
        </mxCell>
        <mxCell id="U5pFRukm2JmZBXN3nTK0-5" style="edgeStyle=none;rounded=0;orthogonalLoop=1;jettySize=auto;html=1;entryX=0.25;entryY=1;entryDx=0;entryDy=0;endArrow=none;endFill=0;" parent="1" source="U5pFRukm2JmZBXN3nTK0-2" target="U5pFRukm2JmZBXN3nTK0-1" edge="1">
          <mxGeometry relative="1" as="geometry" />
        </mxCell>
        <mxCell id="U5pFRukm2JmZBXN3nTK0-2" value="Motivation" style="ellipse;whiteSpace=wrap;html=1;align=center;" parent="1" vertex="1">
          <mxGeometry x="600" y="844" width="100" height="40" as="geometry" />
        </mxCell>
        <mxCell id="U5pFRukm2JmZBXN3nTK0-4" style="rounded=0;orthogonalLoop=1;jettySize=auto;html=1;entryX=0;entryY=1;entryDx=0;entryDy=0;endArrow=none;endFill=0;exitX=1;exitY=0;exitDx=0;exitDy=0;" parent="1" source="U5pFRukm2JmZBXN3nTK0-3" target="U5pFRukm2JmZBXN3nTK0-1" edge="1">
          <mxGeometry relative="1" as="geometry" />
        </mxCell>
        <mxCell id="U5pFRukm2JmZBXN3nTK0-3" value="adoptionId" style="ellipse;whiteSpace=wrap;html=1;align=center;fontStyle=4;" parent="1" vertex="1">
          <mxGeometry x="510" y="810" width="100" height="40" as="geometry" />
        </mxCell>
        <mxCell id="U5pFRukm2JmZBXN3nTK0-7" style="edgeStyle=none;rounded=0;orthogonalLoop=1;jettySize=auto;html=1;entryX=0.75;entryY=1;entryDx=0;entryDy=0;endArrow=none;endFill=0;exitX=0;exitY=0;exitDx=0;exitDy=0;" parent="1" source="U5pFRukm2JmZBXN3nTK0-8" target="U5pFRukm2JmZBXN3nTK0-1" edge="1">
          <mxGeometry relative="1" as="geometry">
            <mxPoint x="840.5177565894505" y="766.6308638495473" as="sourcePoint" />
            <mxPoint x="789.9999999999995" y="758" as="targetPoint" />
          </mxGeometry>
        </mxCell>
        <mxCell id="U5pFRukm2JmZBXN3nTK0-8" value="adoptionDate" style="ellipse;whiteSpace=wrap;html=1;align=center;" parent="1" vertex="1">
          <mxGeometry x="720" y="838" width="100" height="40" as="geometry" />
        </mxCell>
        <mxCell id="U5pFRukm2JmZBXN3nTK0-12" style="edgeStyle=none;rounded=0;orthogonalLoop=1;jettySize=auto;html=1;exitX=1;exitY=1;exitDx=0;exitDy=0;entryX=0;entryY=0;entryDx=0;entryDy=0;endArrow=none;endFill=0;shape=link;" parent="1" source="U5pFRukm2JmZBXN3nTK0-10" target="U5pFRukm2JmZBXN3nTK0-1" edge="1">
          <mxGeometry relative="1" as="geometry" />
        </mxCell>
        <mxCell id="U5pFRukm2JmZBXN3nTK0-19" value="N" style="edgeLabel;html=1;align=center;verticalAlign=middle;resizable=0;points=[];" parent="U5pFRukm2JmZBXN3nTK0-12" vertex="1" connectable="0">
          <mxGeometry x="0.3859" y="1" relative="1" as="geometry">
            <mxPoint x="49.239999999999995" y="19" as="offset" />
          </mxGeometry>
        </mxCell>
        <mxCell id="U5pFRukm2JmZBXN3nTK0-10" value="Make" style="shape=rhombus;perimeter=rhombusPerimeter;whiteSpace=wrap;html=1;align=center;" parent="1" vertex="1">
          <mxGeometry x="410" y="613" width="120" height="60" as="geometry" />
        </mxCell>
        <mxCell id="U5pFRukm2JmZBXN3nTK0-15" style="edgeStyle=none;rounded=0;orthogonalLoop=1;jettySize=auto;html=1;exitX=0;exitY=0.5;exitDx=0;exitDy=0;entryX=1;entryY=0.5;entryDx=0;entryDy=0;endArrow=none;endFill=0;" parent="1" source="U5pFRukm2JmZBXN3nTK0-13" target="U5pFRukm2JmZBXN3nTK0-1" edge="1">
          <mxGeometry relative="1" as="geometry" />
        </mxCell>
        <mxCell id="U5pFRukm2JmZBXN3nTK0-16" value="1" style="edgeLabel;html=1;align=center;verticalAlign=middle;resizable=0;points=[];" parent="U5pFRukm2JmZBXN3nTK0-15" vertex="1" connectable="0">
          <mxGeometry x="0.6478" y="-1" relative="1" as="geometry">
            <mxPoint x="-16.47" y="-9" as="offset" />
          </mxGeometry>
        </mxCell>
        <mxCell id="U5pFRukm2JmZBXN3nTK0-13" value="isAdopted" style="shape=rhombus;perimeter=rhombusPerimeter;whiteSpace=wrap;html=1;align=center;" parent="1" vertex="1">
          <mxGeometry x="880" y="740" width="120" height="60" as="geometry" />
        </mxCell>
        <mxCell id="qlrLdv76kINhOPQXNaBP-9" style="edgeStyle=none;rounded=0;orthogonalLoop=1;jettySize=auto;html=1;exitX=1;exitY=0.5;exitDx=0;exitDy=0;entryX=0.5;entryY=0;entryDx=0;entryDy=0;endArrow=none;endFill=0;" parent="1" source="qlrLdv76kINhOPQXNaBP-10" target="_XHJdUySWQMbSV_TM1zQ-2" edge="1">
          <mxGeometry x="-200" y="150" as="geometry">
            <mxPoint x="55" y="424" as="targetPoint" />
          </mxGeometry>
        </mxCell>
        <mxCell id="qlrLdv76kINhOPQXNaBP-10" value="username" style="ellipse;whiteSpace=wrap;html=1;align=center;" parent="1" vertex="1">
          <mxGeometry x="100" y="330" width="100" height="40" as="geometry" />
        </mxCell>
        <mxCell id="qlrLdv76kINhOPQXNaBP-11" style="edgeStyle=none;rounded=0;orthogonalLoop=1;jettySize=auto;html=1;exitX=1;exitY=1;exitDx=0;exitDy=0;endArrow=none;endFill=0;entryX=0.5;entryY=0;entryDx=0;entryDy=0;" parent="1" source="qlrLdv76kINhOPQXNaBP-12" target="_XHJdUySWQMbSV_TM1zQ-2" edge="1">
          <mxGeometry x="85" y="80" as="geometry">
            <mxPoint x="39" y="330" as="targetPoint" />
          </mxGeometry>
        </mxCell>
        <mxCell id="qlrLdv76kINhOPQXNaBP-12" value="auth_key" style="ellipse;whiteSpace=wrap;html=1;align=center;" parent="1" vertex="1">
          <mxGeometry x="110" y="280" width="100" height="40" as="geometry" />
        </mxCell>
        <mxCell id="qlrLdv76kINhOPQXNaBP-13" style="edgeStyle=none;rounded=0;orthogonalLoop=1;jettySize=auto;html=1;exitX=1;exitY=1;exitDx=0;exitDy=0;entryX=0.5;entryY=0;entryDx=0;entryDy=0;endArrow=none;endFill=0;" parent="1" source="qlrLdv76kINhOPQXNaBP-14" target="_XHJdUySWQMbSV_TM1zQ-2" edge="1">
          <mxGeometry x="50" y="56" as="geometry">
            <mxPoint x="305" y="330" as="targetPoint" />
          </mxGeometry>
        </mxCell>
        <mxCell id="qlrLdv76kINhOPQXNaBP-14" value="password_hash" style="ellipse;whiteSpace=wrap;html=1;align=center;" parent="1" vertex="1">
          <mxGeometry x="130" y="225" width="100" height="40" as="geometry" />
        </mxCell>
        <mxCell id="qlrLdv76kINhOPQXNaBP-15" style="edgeStyle=none;rounded=0;orthogonalLoop=1;jettySize=auto;html=1;exitX=1;exitY=1;exitDx=0;exitDy=0;entryX=0.5;entryY=0;entryDx=0;entryDy=0;endArrow=none;endFill=0;" parent="1" source="qlrLdv76kINhOPQXNaBP-16" target="_XHJdUySWQMbSV_TM1zQ-2" edge="1">
          <mxGeometry x="155" y="96" as="geometry">
            <mxPoint x="410" y="370" as="targetPoint" />
          </mxGeometry>
        </mxCell>
        <mxCell id="qlrLdv76kINhOPQXNaBP-16" value="password_reset_token" style="ellipse;whiteSpace=wrap;html=1;align=center;" parent="1" vertex="1">
          <mxGeometry x="110" y="170" width="150" height="40" as="geometry" />
        </mxCell>
        <mxCell id="qlrLdv76kINhOPQXNaBP-17" style="edgeStyle=none;rounded=0;orthogonalLoop=1;jettySize=auto;html=1;exitX=0.5;exitY=1;exitDx=0;exitDy=0;endArrow=none;endFill=0;" parent="1" source="qlrLdv76kINhOPQXNaBP-18" edge="1">
          <mxGeometry x="235" y="16" as="geometry">
            <mxPoint x="270" y="474" as="targetPoint" />
          </mxGeometry>
        </mxCell>
        <mxCell id="qlrLdv76kINhOPQXNaBP-18" value="status" style="ellipse;whiteSpace=wrap;html=1;align=center;" parent="1" vertex="1">
          <mxGeometry x="320" y="180" width="100" height="40" as="geometry" />
        </mxCell>
        <mxCell id="qlrLdv76kINhOPQXNaBP-19" style="edgeStyle=none;rounded=0;orthogonalLoop=1;jettySize=auto;html=1;exitX=0.5;exitY=1;exitDx=0;exitDy=0;entryX=0.5;entryY=0;entryDx=0;entryDy=0;endArrow=none;endFill=0;" parent="1" source="qlrLdv76kINhOPQXNaBP-20" target="_XHJdUySWQMbSV_TM1zQ-2" edge="1">
          <mxGeometry x="355" y="30" as="geometry">
            <mxPoint x="610" y="304" as="targetPoint" />
          </mxGeometry>
        </mxCell>
        <mxCell id="qlrLdv76kINhOPQXNaBP-20" value="created_at" style="ellipse;whiteSpace=wrap;html=1;align=center;" parent="1" vertex="1">
          <mxGeometry x="350" y="264" width="100" height="40" as="geometry" />
        </mxCell>
        <mxCell id="qlrLdv76kINhOPQXNaBP-21" style="edgeStyle=none;rounded=0;orthogonalLoop=1;jettySize=auto;html=1;exitX=0.5;exitY=1;exitDx=0;exitDy=0;entryX=0.608;entryY=0.037;entryDx=0;entryDy=0;endArrow=none;endFill=0;entryPerimeter=0;" parent="1" source="qlrLdv76kINhOPQXNaBP-22" target="_XHJdUySWQMbSV_TM1zQ-2" edge="1">
          <mxGeometry x="265" y="106" as="geometry">
            <mxPoint x="520" y="380" as="targetPoint" />
          </mxGeometry>
        </mxCell>
        <mxCell id="qlrLdv76kINhOPQXNaBP-22" value="updated_at" style="ellipse;whiteSpace=wrap;html=1;align=center;" parent="1" vertex="1">
          <mxGeometry x="440" y="225" width="100" height="40" as="geometry" />
        </mxCell>
        <mxCell id="qlrLdv76kINhOPQXNaBP-23" value="" style="group" parent="1" vertex="1" connectable="0">
          <mxGeometry x="350" y="310" width="175" height="134" as="geometry" />
        </mxCell>
        <mxCell id="_XHJdUySWQMbSV_TM1zQ-17" value="LastName" style="ellipse;whiteSpace=wrap;html=1;align=center;" parent="qlrLdv76kINhOPQXNaBP-23" vertex="1">
          <mxGeometry x="120" y="100" width="100" height="40" as="geometry" />
        </mxCell>
        <mxCell id="qlrLdv76kINhOPQXNaBP-3" value="Name" style="ellipse;whiteSpace=wrap;html=1;align=center;" parent="qlrLdv76kINhOPQXNaBP-23" vertex="1">
          <mxGeometry y="94" width="100" height="40" as="geometry" />
        </mxCell>
        <mxCell id="qlrLdv76kINhOPQXNaBP-5" style="edgeStyle=none;rounded=0;orthogonalLoop=1;jettySize=auto;html=1;entryX=1;entryY=0.5;entryDx=0;entryDy=0;endArrow=none;endFill=0;exitX=0;exitY=0.5;exitDx=0;exitDy=0;" parent="qlrLdv76kINhOPQXNaBP-23" source="_XHJdUySWQMbSV_TM1zQ-17" target="qlrLdv76kINhOPQXNaBP-3" edge="1">
          <mxGeometry x="30" y="-150" as="geometry">
            <mxPoint x="127.41702264651235" y="13.778727057365813" as="sourcePoint" />
            <mxPoint x="130" y="94" as="targetPoint" />
          </mxGeometry>
        </mxCell>
        <mxCell id="qlrLdv76kINhOPQXNaBP-4" style="edgeStyle=none;rounded=0;orthogonalLoop=1;jettySize=auto;html=1;entryX=1;entryY=0;entryDx=0;entryDy=0;endArrow=none;endFill=0;" parent="qlrLdv76kINhOPQXNaBP-23" target="qlrLdv76kINhOPQXNaBP-3" edge="1">
          <mxGeometry x="-70" y="-130" as="geometry">
            <mxPoint x="120" y="80" as="sourcePoint" />
          </mxGeometry>
        </mxCell>
        <mxCell id="qlrLdv76kINhOPQXNaBP-6" value="FirstName" style="ellipse;whiteSpace=wrap;html=1;align=center;" parent="qlrLdv76kINhOPQXNaBP-23" vertex="1">
          <mxGeometry x="70" y="40" width="100" height="40" as="geometry" />
        </mxCell>
        <mxCell id="qlrLdv76kINhOPQXNaBP-2" style="edgeStyle=none;rounded=0;orthogonalLoop=1;jettySize=auto;html=1;exitX=0;exitY=1;exitDx=0;exitDy=0;entryX=0.75;entryY=0;entryDx=0;entryDy=0;endArrow=none;endFill=0;" parent="1" source="qlrLdv76kINhOPQXNaBP-3" target="_XHJdUySWQMbSV_TM1zQ-2" edge="1">
          <mxGeometry x="-250" y="-374" as="geometry">
            <mxPoint x="-70" y="-100" as="targetPoint" />
          </mxGeometry>
        </mxCell>
        <mxCell id="qlrLdv76kINhOPQXNaBP-24" style="edgeStyle=none;rounded=0;orthogonalLoop=1;jettySize=auto;html=1;exitX=0.5;exitY=1;exitDx=0;exitDy=0;entryX=0.5;entryY=0;entryDx=0;entryDy=0;endArrow=none;endFill=0;" parent="1" source="qlrLdv76kINhOPQXNaBP-25" target="_XHJdUySWQMbSV_TM1zQ-2" edge="1">
          <mxGeometry x="185" y="19" as="geometry">
            <mxPoint x="275" y="397" as="targetPoint" />
          </mxGeometry>
        </mxCell>
        <mxCell id="qlrLdv76kINhOPQXNaBP-25" value="verification_token" style="ellipse;whiteSpace=wrap;html=1;align=center;" parent="1" vertex="1">
          <mxGeometry x="200" y="120" width="150" height="40" as="geometry" />
        </mxCell>
        <mxCell id="gSfZ9g75t-FmqlNh5gkJ-1" value="Address" style="rounded=1;arcSize=10;whiteSpace=wrap;html=1;align=center;" parent="1" vertex="1">
          <mxGeometry x="-340" y="810" width="100" height="40" as="geometry" />
        </mxCell>
        <mxCell id="_XHJdUySWQMbSV_TM1zQ-68" value="Name" style="ellipse;whiteSpace=wrap;html=1;align=center;" parent="1" vertex="1">
          <mxGeometry x="265" y="1272.35" width="100" height="40" as="geometry" />
        </mxCell>
        <mxCell id="_XHJdUySWQMbSV_TM1zQ-86" style="edgeStyle=none;rounded=0;orthogonalLoop=1;jettySize=auto;html=1;exitX=0.5;exitY=0;exitDx=0;exitDy=0;entryX=0.5;entryY=1;entryDx=0;entryDy=0;endArrow=none;endFill=0;" parent="1" source="_XHJdUySWQMbSV_TM1zQ-68" target="_XHJdUySWQMbSV_TM1zQ-1" edge="1">
          <mxGeometry x="45" y="1040" as="geometry" />
        </mxCell>
        <mxCell id="_XHJdUySWQMbSV_TM1zQ-1" value="Organization" style="rounded=1;arcSize=10;whiteSpace=wrap;html=1;align=center;" parent="1" vertex="1">
          <mxGeometry x="254" y="1152.35" width="100" height="40" as="geometry" />
        </mxCell>
        <mxCell id="_XHJdUySWQMbSV_TM1zQ-66" style="edgeStyle=none;rounded=0;orthogonalLoop=1;jettySize=auto;html=1;entryX=0;entryY=0.75;entryDx=0;entryDy=0;endArrow=none;endFill=0;" parent="1" source="_XHJdUySWQMbSV_TM1zQ-65" target="_XHJdUySWQMbSV_TM1zQ-1" edge="1">
          <mxGeometry x="114" y="922.35" as="geometry" />
        </mxCell>
        <mxCell id="_XHJdUySWQMbSV_TM1zQ-65" value="OrganizationId" style="ellipse;whiteSpace=wrap;html=1;align=center;fontStyle=4;" parent="1" vertex="1">
          <mxGeometry x="60" y="1221" width="100" height="40" as="geometry" />
        </mxCell>
        <mxCell id="_XHJdUySWQMbSV_TM1zQ-88" style="edgeStyle=none;rounded=0;orthogonalLoop=1;jettySize=auto;html=1;exitX=1;exitY=0;exitDx=0;exitDy=0;entryX=0.25;entryY=1;entryDx=0;entryDy=0;endArrow=none;endFill=0;" parent="1" source="_XHJdUySWQMbSV_TM1zQ-69" target="_XHJdUySWQMbSV_TM1zQ-1" edge="1">
          <mxGeometry x="114" y="922.35" as="geometry" />
        </mxCell>
        <mxCell id="_XHJdUySWQMbSV_TM1zQ-69" value="NIF" style="ellipse;whiteSpace=wrap;html=1;align=center;" parent="1" vertex="1">
          <mxGeometry x="180" y="1232.35" width="100" height="40" as="geometry" />
        </mxCell>
        <mxCell id="_XHJdUySWQMbSV_TM1zQ-90" style="edgeStyle=none;rounded=0;orthogonalLoop=1;jettySize=auto;html=1;exitX=0;exitY=0;exitDx=0;exitDy=0;entryX=0.75;entryY=1;entryDx=0;entryDy=0;endArrow=none;endFill=0;" parent="1" source="_XHJdUySWQMbSV_TM1zQ-70" target="_XHJdUySWQMbSV_TM1zQ-1" edge="1">
          <mxGeometry x="114" y="922.35" as="geometry" />
        </mxCell>
        <mxCell id="_XHJdUySWQMbSV_TM1zQ-70" value="Email" style="ellipse;whiteSpace=wrap;html=1;align=center;" parent="1" vertex="1">
          <mxGeometry x="374" y="1292.35" width="100" height="40" as="geometry" />
        </mxCell>
        <mxCell id="_XHJdUySWQMbSV_TM1zQ-89" style="edgeStyle=none;rounded=0;orthogonalLoop=1;jettySize=auto;html=1;exitX=0;exitY=0;exitDx=0;exitDy=0;endArrow=none;endFill=0;entryX=0.75;entryY=1;entryDx=0;entryDy=0;" parent="1" source="_XHJdUySWQMbSV_TM1zQ-71" target="_XHJdUySWQMbSV_TM1zQ-1" edge="1">
          <mxGeometry x="114" y="922.35" as="geometry">
            <mxPoint x="354" y="1202.35" as="targetPoint" />
          </mxGeometry>
        </mxCell>
        <mxCell id="_XHJdUySWQMbSV_TM1zQ-71" value="Phone" style="ellipse;whiteSpace=wrap;html=1;align=center;" parent="1" vertex="1">
          <mxGeometry x="404" y="1232.35" width="100" height="40" as="geometry" />
        </mxCell>
        <mxCell id="gSfZ9g75t-FmqlNh5gkJ-3" style="edgeStyle=none;rounded=0;orthogonalLoop=1;jettySize=auto;html=1;exitX=0.5;exitY=1;exitDx=0;exitDy=0;entryX=0.25;entryY=0;entryDx=0;entryDy=0;endArrow=none;endFill=0;" parent="1" source="gSfZ9g75t-FmqlNh5gkJ-4" target="gSfZ9g75t-FmqlNh5gkJ-1" edge="1">
          <mxGeometry x="-679" y="455.21000000000004" as="geometry">
            <mxPoint x="-455.35533905932743" y="741.7021356237312" as="targetPoint" />
          </mxGeometry>
        </mxCell>
        <mxCell id="gSfZ9g75t-FmqlNh5gkJ-4" value="Floor" style="ellipse;whiteSpace=wrap;html=1;align=center;" parent="1" vertex="1">
          <mxGeometry x="-500" y="667" width="100" height="40" as="geometry" />
        </mxCell>
        <mxCell id="gSfZ9g75t-FmqlNh5gkJ-5" style="edgeStyle=none;rounded=0;orthogonalLoop=1;jettySize=auto;html=1;exitX=0.5;exitY=1;exitDx=0;exitDy=0;endArrow=none;endFill=0;entryX=0.25;entryY=0;entryDx=0;entryDy=0;" parent="1" source="gSfZ9g75t-FmqlNh5gkJ-6" target="gSfZ9g75t-FmqlNh5gkJ-1" edge="1">
          <mxGeometry x="-679" y="455.21000000000004" as="geometry">
            <mxPoint x="-455.35533905932743" y="741.7021356237312" as="targetPoint" />
          </mxGeometry>
        </mxCell>
        <mxCell id="gSfZ9g75t-FmqlNh5gkJ-6" value="DoorNumber" style="ellipse;whiteSpace=wrap;html=1;align=center;" parent="1" vertex="1">
          <mxGeometry x="-520" y="722" width="100" height="40" as="geometry" />
        </mxCell>
        <mxCell id="gSfZ9g75t-FmqlNh5gkJ-7" style="edgeStyle=none;rounded=0;orthogonalLoop=1;jettySize=auto;html=1;exitX=1;exitY=0.5;exitDx=0;exitDy=0;endArrow=none;endFill=0;entryX=0;entryY=0;entryDx=0;entryDy=0;" parent="1" source="gSfZ9g75t-FmqlNh5gkJ-8" target="gSfZ9g75t-FmqlNh5gkJ-1" edge="1">
          <mxGeometry x="-679" y="455.21000000000004" as="geometry">
            <mxPoint x="-459.14257566833476" y="740.0041714552508" as="targetPoint" />
          </mxGeometry>
        </mxCell>
        <mxCell id="gSfZ9g75t-FmqlNh5gkJ-8" value="Street" style="ellipse;whiteSpace=wrap;html=1;align=center;" parent="1" vertex="1">
          <mxGeometry x="-630" y="750" width="100" height="40" as="geometry" />
        </mxCell>
        <mxCell id="gSfZ9g75t-FmqlNh5gkJ-9" style="edgeStyle=none;rounded=0;orthogonalLoop=1;jettySize=auto;html=1;entryX=0.5;entryY=0;entryDx=0;entryDy=0;endArrow=none;endFill=0;exitX=0.5;exitY=1;exitDx=0;exitDy=0;" parent="1" source="gSfZ9g75t-FmqlNh5gkJ-10" target="gSfZ9g75t-FmqlNh5gkJ-1" edge="1">
          <mxGeometry x="-919" y="466.43000000000006" as="geometry">
            <mxPoint x="-277" y="776" as="sourcePoint" />
            <mxPoint x="-660" y="758.78" as="targetPoint" />
          </mxGeometry>
        </mxCell>
        <mxCell id="gSfZ9g75t-FmqlNh5gkJ-10" value="Postal Code" style="ellipse;whiteSpace=wrap;html=1;align=center;" parent="1" vertex="1">
          <mxGeometry x="-340" y="740" width="100" height="40" as="geometry" />
        </mxCell>
        <mxCell id="gSfZ9g75t-FmqlNh5gkJ-11" style="edgeStyle=none;rounded=0;orthogonalLoop=1;jettySize=auto;html=1;entryX=0.427;entryY=-0.001;entryDx=0;entryDy=0;endArrow=none;endFill=0;entryPerimeter=0;" parent="1" source="gSfZ9g75t-FmqlNh5gkJ-12" target="gSfZ9g75t-FmqlNh5gkJ-10" edge="1">
          <mxGeometry x="-819" y="510.1500000000001" as="geometry" />
        </mxCell>
        <mxCell id="gSfZ9g75t-FmqlNh5gkJ-12" value="Code" style="ellipse;whiteSpace=wrap;html=1;align=center;" parent="1" vertex="1">
          <mxGeometry x="-400" y="697" width="100" height="40" as="geometry" />
        </mxCell>
        <mxCell id="gSfZ9g75t-FmqlNh5gkJ-13" style="edgeStyle=none;rounded=0;orthogonalLoop=1;jettySize=auto;html=1;exitX=0.5;exitY=1;exitDx=0;exitDy=0;entryX=1;entryY=0;entryDx=0;entryDy=0;endArrow=none;endFill=0;" parent="1" source="gSfZ9g75t-FmqlNh5gkJ-14" target="gSfZ9g75t-FmqlNh5gkJ-10" edge="1">
          <mxGeometry x="-819" y="510.1500000000001" as="geometry" />
        </mxCell>
        <mxCell id="gSfZ9g75t-FmqlNh5gkJ-14" value="StreetCode" style="ellipse;whiteSpace=wrap;html=1;align=center;" parent="1" vertex="1">
          <mxGeometry x="-310" y="667" width="100" height="40" as="geometry" />
        </mxCell>
        <mxCell id="gSfZ9g75t-FmqlNh5gkJ-16" style="edgeStyle=none;rounded=0;orthogonalLoop=1;jettySize=auto;html=1;endArrow=none;endFill=0;" parent="1" source="gSfZ9g75t-FmqlNh5gkJ-17" target="gSfZ9g75t-FmqlNh5gkJ-1" edge="1">
          <mxGeometry x="-919" y="466.43000000000006" as="geometry">
            <mxPoint x="-645.4000000000001" y="757.54" as="targetPoint" />
          </mxGeometry>
        </mxCell>
        <mxCell id="gSfZ9g75t-FmqlNh5gkJ-17" value="City" style="ellipse;whiteSpace=wrap;html=1;align=center;" parent="1" vertex="1">
          <mxGeometry x="-310" y="900" width="100" height="40" as="geometry" />
        </mxCell>
        <mxCell id="gSfZ9g75t-FmqlNh5gkJ-18" style="edgeStyle=none;rounded=0;orthogonalLoop=1;jettySize=auto;html=1;endArrow=none;endFill=0;entryX=0;entryY=1;entryDx=0;entryDy=0;" parent="1" source="gSfZ9g75t-FmqlNh5gkJ-19" target="gSfZ9g75t-FmqlNh5gkJ-1" edge="1">
          <mxGeometry x="-919" y="466.43000000000006" as="geometry">
            <mxPoint x="-340" y="860" as="targetPoint" />
          </mxGeometry>
        </mxCell>
        <mxCell id="gSfZ9g75t-FmqlNh5gkJ-19" value="District" style="ellipse;whiteSpace=wrap;html=1;align=center;" parent="1" vertex="1">
          <mxGeometry x="-470" y="894" width="100" height="40" as="geometry" />
        </mxCell>
        <mxCell id="gSfZ9g75t-FmqlNh5gkJ-20" style="edgeStyle=none;rounded=0;orthogonalLoop=1;jettySize=auto;html=1;entryX=0.25;entryY=1;entryDx=0;entryDy=0;endArrow=none;endFill=0;" parent="1" source="gSfZ9g75t-FmqlNh5gkJ-21" target="gSfZ9g75t-FmqlNh5gkJ-1" edge="1">
          <mxGeometry x="-919" y="466.43000000000006" as="geometry">
            <mxPoint x="-624.644660940673" y="752.9221356237308" as="targetPoint" />
          </mxGeometry>
        </mxCell>
        <mxCell id="gSfZ9g75t-FmqlNh5gkJ-21" value="Municipality" style="ellipse;whiteSpace=wrap;html=1;align=center;" parent="1" vertex="1">
          <mxGeometry x="-390" y="940" width="100" height="40" as="geometry" />
        </mxCell>
        <mxCell id="gSfZ9g75t-FmqlNh5gkJ-24" style="rounded=0;orthogonalLoop=1;jettySize=auto;html=1;entryX=0;entryY=0.5;entryDx=0;entryDy=0;endArrow=none;endFill=0;" parent="1" source="gSfZ9g75t-FmqlNh5gkJ-23" target="gSfZ9g75t-FmqlNh5gkJ-1" edge="1">
          <mxGeometry relative="1" as="geometry" />
        </mxCell>
        <mxCell id="gSfZ9g75t-FmqlNh5gkJ-23" value="address_id" style="ellipse;whiteSpace=wrap;html=1;align=center;fontStyle=4;" parent="1" vertex="1">
          <mxGeometry x="-550" y="810" width="100" height="40" as="geometry" />
        </mxCell>
        <mxCell id="gSfZ9g75t-FmqlNh5gkJ-30" style="edgeStyle=orthogonalEdgeStyle;rounded=0;orthogonalLoop=1;jettySize=auto;html=1;entryX=0;entryY=0.5;entryDx=0;entryDy=0;endArrow=none;endFill=0;exitX=0.5;exitY=0;exitDx=0;exitDy=0;" parent="1" source="gSfZ9g75t-FmqlNh5gkJ-25" target="_XHJdUySWQMbSV_TM1zQ-2" edge="1">
          <mxGeometry relative="1" as="geometry" />
        </mxCell>
        <mxCell id="gSfZ9g75t-FmqlNh5gkJ-31" style="edgeStyle=orthogonalEdgeStyle;rounded=0;orthogonalLoop=1;jettySize=auto;html=1;entryX=1;entryY=0.25;entryDx=0;entryDy=0;endArrow=none;endFill=0;exitX=0.5;exitY=1;exitDx=0;exitDy=0;shape=link;" parent="1" source="gSfZ9g75t-FmqlNh5gkJ-25" target="gSfZ9g75t-FmqlNh5gkJ-1" edge="1">
          <mxGeometry relative="1" as="geometry" />
        </mxCell>
        <mxCell id="gSfZ9g75t-FmqlNh5gkJ-32" value="1" style="edgeLabel;html=1;align=center;verticalAlign=middle;resizable=0;points=[];" parent="gSfZ9g75t-FmqlNh5gkJ-31" vertex="1" connectable="0">
          <mxGeometry x="0.8345" y="-1" relative="1" as="geometry">
            <mxPoint x="-18.17" y="-9.01" as="offset" />
          </mxGeometry>
        </mxCell>
        <mxCell id="gSfZ9g75t-FmqlNh5gkJ-25" value="Relationship" style="shape=rhombus;perimeter=rhombusPerimeter;whiteSpace=wrap;html=1;align=center;" parent="1" vertex="1">
          <mxGeometry x="-170" y="612" width="120" height="60" as="geometry" />
        </mxCell>
        <mxCell id="gSfZ9g75t-FmqlNh5gkJ-27" style="edgeStyle=orthogonalEdgeStyle;rounded=0;orthogonalLoop=1;jettySize=auto;html=1;entryX=0;entryY=0.5;entryDx=0;entryDy=0;endArrow=none;endFill=0;exitX=0.5;exitY=1;exitDx=0;exitDy=0;" parent="1" source="gSfZ9g75t-FmqlNh5gkJ-26" target="_XHJdUySWQMbSV_TM1zQ-1" edge="1">
          <mxGeometry relative="1" as="geometry" />
        </mxCell>
        <mxCell id="gSfZ9g75t-FmqlNh5gkJ-28" style="edgeStyle=orthogonalEdgeStyle;rounded=0;orthogonalLoop=1;jettySize=auto;html=1;endArrow=none;endFill=0;entryX=1;entryY=0.75;entryDx=0;entryDy=0;exitX=0.5;exitY=0;exitDx=0;exitDy=0;shape=link;" parent="1" source="gSfZ9g75t-FmqlNh5gkJ-26" target="gSfZ9g75t-FmqlNh5gkJ-1" edge="1">
          <mxGeometry relative="1" as="geometry">
            <mxPoint x="-100" y="870" as="targetPoint" />
          </mxGeometry>
        </mxCell>
        <mxCell id="gSfZ9g75t-FmqlNh5gkJ-29" value="1" style="edgeLabel;html=1;align=center;verticalAlign=middle;resizable=0;points=[];" parent="gSfZ9g75t-FmqlNh5gkJ-28" vertex="1" connectable="0">
          <mxGeometry x="0.212" y="48" relative="1" as="geometry">
            <mxPoint x="-125" y="-39" as="offset" />
          </mxGeometry>
        </mxCell>
        <mxCell id="gSfZ9g75t-FmqlNh5gkJ-26" value="Relationship" style="shape=rhombus;perimeter=rhombusPerimeter;whiteSpace=wrap;html=1;align=center;" parent="1" vertex="1">
          <mxGeometry x="-170" y="1040" width="120" height="60" as="geometry" />
        </mxCell>
        <mxCell id="I0KIHZFSOODaHlHC01v1-1" value="1" style="text;html=1;strokeColor=none;fillColor=none;align=center;verticalAlign=middle;whiteSpace=wrap;rounded=0;" vertex="1" parent="1">
          <mxGeometry x="1565" y="600" width="10" height="10" as="geometry" />
        </mxCell>
      </root>
    </mxGraphModel>
  </diagram>
</mxfile>
